<svg width="222" height="71" viewBox="0 0 222 71" fill="none" xmlns="http://www.w3.org/2000/svg">
<rect x="0.769531" y="0.238281" width="221.167" height="70" rx="10" fill="#67A948"/>
<g clip-path="url(#clip0_14541_128747)">
<path d="M48.3824 15.2383C46.241 15.3858 43.7381 16.7508 42.2795 18.5283C40.949 20.1408 39.8544 22.5357 40.2812 24.8632C42.6209 24.9357 45.0385 23.5382 46.4393 21.7307C47.7497 20.0483 48.7414 17.6683 48.3824 15.2383Z" fill="#F7FFF3"/>
<path d="M56.8462 28.6629C54.7901 26.0955 51.9006 24.6055 49.1718 24.6055C45.5693 24.6055 44.0454 26.323 41.5425 26.323C38.9618 26.323 37.0011 24.6105 33.8857 24.6105C30.8254 24.6105 27.5669 26.473 25.5008 29.6579C22.5962 34.1429 23.0933 42.5754 27.8003 49.7578C29.4849 52.3278 31.7342 55.2178 34.6765 55.2428C37.2949 55.2678 38.0329 53.5703 41.5802 53.5528C45.1274 53.5328 45.8002 55.2653 48.4136 55.2378C51.3584 55.2153 53.7307 52.0128 55.4153 49.4428C56.6228 47.6003 57.0721 46.6728 58.0085 44.5928C51.1977 42.0104 50.1057 32.3654 56.8462 28.6629Z" fill="#F7FFF3"/>
</g>
<path d="M77.4415 30.0063L71.0815 47.2383H75.0415L76.2895 43.7823H83.0575L84.3055 47.2383H88.3615L82.0255 30.0063H77.4415ZM79.6495 34.4463L81.8335 40.4703H77.4895L79.6495 34.4463ZM96.9184 47.5023C100.398 47.5023 102.366 44.5263 102.366 40.9263C102.366 37.3023 100.398 34.3263 96.9184 34.3263C95.4064 34.3263 94.2064 34.9503 93.4864 35.8623V34.5903H89.6464V51.4623H93.4864V45.9903C94.2064 46.8783 95.4064 47.5023 96.9184 47.5023ZM93.4624 40.5903C93.4624 38.6703 94.4944 37.6143 95.9344 37.6143C97.6144 37.6143 98.5024 38.9823 98.5024 40.9263C98.5024 42.8703 97.6144 44.2383 95.9344 44.2383C94.4944 44.2383 93.4624 43.1583 93.4624 41.2623V40.5903ZM111.473 47.5023C114.953 47.5023 116.921 44.5263 116.921 40.9263C116.921 37.3023 114.953 34.3263 111.473 34.3263C109.961 34.3263 108.761 34.9503 108.041 35.8623V34.5903H104.201V51.4623H108.041V45.9903C108.761 46.8783 109.961 47.5023 111.473 47.5023ZM108.017 40.5903C108.017 38.6703 109.049 37.6143 110.489 37.6143C112.169 37.6143 113.057 38.9823 113.057 40.9263C113.057 42.8703 112.169 44.2383 110.489 44.2383C109.049 44.2383 108.017 43.1583 108.017 41.2623V40.5903ZM122.596 30.0063H118.756V47.2383H122.596V30.0063ZM130.819 47.5023C133.339 47.5023 135.643 46.2303 136.579 43.8063L133.363 42.7743C133.003 43.8783 132.067 44.4543 130.867 44.4543C129.403 44.4543 128.371 43.4703 128.107 41.7423H136.675V40.7343C136.675 37.1583 134.587 34.3263 130.747 34.3263C127.099 34.3263 124.411 37.1583 124.411 40.9023C124.411 44.8383 127.003 47.5023 130.819 47.5023ZM130.699 37.3023C132.115 37.3023 132.859 38.2623 132.883 39.3903H128.227C128.611 37.9983 129.523 37.3023 130.699 37.3023ZM141.665 44.3103C143.081 46.2783 146.201 47.5023 149.057 47.5023C152.873 47.5023 156.017 45.4143 156.017 41.8143C156.017 38.0223 152.657 37.3263 149.945 36.7503C147.737 36.2703 146.561 36.0303 146.561 34.8303C146.561 33.7263 147.617 33.0543 149.129 33.0543C150.953 33.0543 152.369 33.9183 153.425 35.2623L155.849 32.6223C154.577 31.0143 152.225 29.7423 149.249 29.7423C145.577 29.7423 142.649 31.8543 142.649 35.2383C142.649 38.6943 145.433 39.5343 147.977 40.0863C150.593 40.6623 152.057 40.8543 152.057 42.2223C152.057 43.5183 150.881 44.1903 149.225 44.1903C147.377 44.1903 145.481 43.2783 144.137 41.5503L141.665 44.3103ZM158.188 43.8543C158.188 46.4463 159.556 47.3583 162.292 47.3583C163.204 47.3583 163.924 47.2863 164.596 47.1903V44.0463C164.164 44.0943 163.948 44.1183 163.492 44.1183C162.532 44.1183 161.98 43.9263 161.98 42.8703V37.7583H164.452V34.5903H161.98V31.0863H158.188V34.5903H156.58V37.7583H158.188V43.8543ZM178.333 40.9263C178.333 36.9903 175.717 34.3263 171.997 34.3263C168.253 34.3263 165.661 36.9903 165.661 40.9263C165.661 44.8623 168.253 47.5023 171.997 47.5023C175.717 47.5023 178.333 44.8623 178.333 40.9263ZM169.477 40.9263C169.477 38.7183 170.461 37.4703 171.997 37.4703C173.533 37.4703 174.517 38.7183 174.517 40.9263C174.517 43.1343 173.533 44.3823 171.997 44.3823C170.461 44.3823 169.477 43.1343 169.477 40.9263ZM188.083 34.5663C187.843 34.5423 187.603 34.5183 187.243 34.5183C185.779 34.5183 184.555 35.2383 183.979 36.2463V34.5903H180.139V47.2383H183.979V41.0223C183.979 39.1983 185.299 38.1663 186.955 38.1663C187.387 38.1663 187.675 38.1903 188.083 38.2623V34.5663ZM195.038 47.5023C197.558 47.5023 199.862 46.2303 200.798 43.8063L197.582 42.7743C197.222 43.8783 196.286 44.4543 195.086 44.4543C193.622 44.4543 192.59 43.4703 192.326 41.7423H200.894V40.7343C200.894 37.1583 198.806 34.3263 194.966 34.3263C191.318 34.3263 188.63 37.1583 188.63 40.9023C188.63 44.8383 191.222 47.5023 195.038 47.5023ZM194.918 37.3023C196.334 37.3023 197.078 38.2623 197.102 39.3903H192.446C192.83 37.9983 193.742 37.3023 194.918 37.3023Z" fill="#F7FFF3"/>
<path d="M73.1055 17.4943L70.9855 23.2383H72.3055L72.7215 22.0863H74.9775L75.3935 23.2383H76.7455L74.6335 17.4943H73.1055ZM73.8415 18.9743L74.5695 20.9823H73.1215L73.8415 18.9743ZM79.9751 23.2383L82.0711 17.4943H80.6951L79.3031 21.5183L77.9111 17.4943H76.4871L78.5911 23.2383H79.9751ZM83.9211 17.4943L81.8011 23.2383H83.1211L83.5371 22.0863H85.7931L86.2091 23.2383H87.5611L85.4491 17.4943H83.9211ZM84.6571 18.9743L85.3851 20.9823H83.9371L84.6571 18.9743ZM89.8123 17.4943H88.4763V23.2383H89.8123V17.4943ZM91.1263 23.2383H95.0303V22.0943H92.4623V17.4943H91.1263V23.2383ZM97.7696 17.4943L95.6496 23.2383H96.9696L97.3856 22.0863H99.6416L100.058 23.2383H101.41L99.2976 17.4943H97.7696ZM98.5056 18.9743L99.2336 20.9823H97.7856L98.5056 18.9743ZM102.325 23.2383H104.941C106.173 23.2383 106.893 22.6383 106.893 21.6223C106.893 20.9343 106.493 20.4543 105.949 20.2543C106.325 20.0943 106.725 19.7023 106.725 19.0383C106.725 18.0383 106.053 17.4943 104.797 17.4943H102.325V23.2383ZM103.605 19.7983V18.5903H104.661C105.181 18.5903 105.469 18.7903 105.469 19.1903C105.469 19.5903 105.181 19.7983 104.661 19.7983H103.605ZM103.605 20.8383H104.821C105.333 20.8383 105.613 21.1023 105.613 21.4863C105.613 21.8703 105.333 22.1343 104.821 22.1343H103.605V20.8383ZM107.92 23.2383H111.824V22.0943H109.256V17.4943H107.92V23.2383ZM112.804 17.4943V23.2383H116.86V22.0943H114.116V20.8703H116.404V19.7423H114.116V18.6383H116.86V17.4943H112.804ZM119.723 20.3663C119.723 22.1023 120.867 23.3263 122.475 23.3263C124.091 23.3263 125.227 22.1023 125.227 20.3663C125.227 18.6303 124.091 17.4063 122.475 17.4063C120.867 17.4063 119.723 18.6303 119.723 20.3663ZM123.891 20.3663C123.891 21.4703 123.307 22.1663 122.475 22.1663C121.643 22.1663 121.067 21.4703 121.067 20.3663C121.067 19.2623 121.643 18.5663 122.475 18.5663C123.307 18.5663 123.891 19.2623 123.891 20.3663ZM131.246 17.4943H129.966V21.0063L127.614 17.4943H126.278V23.2383H127.558V19.5343L130.086 23.2383H131.246V17.4943Z" fill="#F7FFF3"/>
<defs>
<clipPath id="clip0_14541_128747">
<rect width="40.1674" height="40" fill="white" transform="translate(20.7695 15.2383)"/>
</clipPath>
</defs>
</svg>
