<svg width="163" height="31" viewBox="0 0 163 31" fill="none" xmlns="http://www.w3.org/2000/svg">
<path d="M0.730469 0.292969H12.6054C14.8399 0.292969 16.5864 0.852414 17.7945 1.83023C19.1566 2.96535 19.9252 4.62425 19.9252 6.61394C19.9252 8.9166 18.9815 10.3857 17.0615 11.2598V11.3652C19.575 12.2035 21.0084 14.4381 21.0084 17.1623C21.0084 19.7472 20.0306 21.7725 18.3896 22.9952C17.0274 23.973 15.2113 24.4628 12.8356 24.4628H0.75155V0.292969H0.730469ZM11.433 9.7582C12.7254 9.7582 13.6335 9.06092 13.6335 7.62743C13.6335 6.2653 12.6556 5.56798 11.3989 5.56798H7.3125V9.72415H11.4313L11.433 9.7582ZM12.0265 19.118C13.4583 19.118 14.5399 18.2456 14.5399 16.637C14.5399 14.9603 13.4048 14.156 11.9908 14.156H7.31088V19.1147L12.0265 19.118ZM22.1906 0.307567H28.4078V24.5114H22.1906V0.307567Z" fill="#151617"/>
<path d="M29.6484 15.8733C29.6484 10.4248 33.1754 6.72266 38.6239 6.72266C44.0725 6.72266 47.5297 10.4248 47.5297 15.8733C47.5297 21.3543 44.0725 25.0239 38.6239 25.0239C33.1754 25.0239 29.6484 21.3591 29.6484 15.8733ZM41.3839 15.8733C41.3839 12.8701 40.4061 10.9485 38.5542 10.9485C36.7024 10.9485 35.7975 12.8344 35.7975 15.8733C35.7975 18.9122 36.7056 20.7981 38.5542 20.7981C40.4061 20.8338 41.3839 18.9462 41.3839 15.8733Z" fill="#151617"/>
<path d="M48.2969 15.8733C48.2969 10.4248 51.8238 6.72266 57.2724 6.72266C62.7209 6.72266 66.1781 10.4248 66.1781 15.8733C66.1781 21.3543 62.7209 25.0239 57.2724 25.0239C51.8238 25.0239 48.2969 21.3591 48.2969 15.8733ZM60.0323 15.8733C60.0323 12.8701 59.0545 10.9485 57.2026 10.9485C55.3508 10.9485 54.4459 12.8344 54.4459 15.8733C54.4459 18.9122 55.354 20.7981 57.2026 20.7981C59.0545 20.8338 60.0323 18.9462 60.0323 15.8733Z" fill="#151617"/>
<path d="M67.4375 7.21182H73.2152V9.79662H73.3206C74.4557 7.76964 76.0449 6.68805 78.5097 6.68805C80.6745 6.68805 82.3172 7.7713 83.1556 9.65559H83.261C84.6588 7.38536 86.509 6.68805 88.6041 6.68805C92.6208 6.68805 94.3316 9.65557 94.3316 13.6025V24.4996H88.2538V14.7214C88.2538 12.9409 87.6944 11.8025 86.1588 11.8025C84.6572 11.8025 83.8885 13.2004 83.8885 15.0863V24.5158H77.8805V14.7377C77.8805 12.9571 77.3211 11.8188 75.7854 11.8188C74.2839 11.8188 73.5152 13.2166 73.5152 15.1025V24.532H67.4375V7.24587V7.21182ZM102.015 22.2278H101.945V24.4623H96.1818V0.261719H102.242V8.99236H102.347C103.482 7.49077 105.036 6.68968 107.272 6.68968C111.601 6.68968 114.115 10.6009 114.115 15.803C114.115 21.6699 111.391 25.0591 106.886 25.0591C104.964 25.0591 103.043 24.151 101.997 22.2294L102.015 22.2278ZM107.917 15.7673C107.917 12.9733 106.904 11.1944 105.054 11.1944C103.203 11.1944 102.015 12.9749 102.015 15.7673C102.015 18.524 103.202 20.3402 105.054 20.3402C106.905 20.3402 107.917 18.5597 107.917 15.7673ZM114.796 15.803C114.796 10.4242 118.359 6.65237 123.527 6.65237C126.111 6.65237 128.067 7.45509 129.604 8.88695C131.596 10.8085 132.504 13.8457 132.434 17.3743H120.84C121.083 19.5391 122.132 20.6224 123.948 20.6224C124.996 20.6224 125.94 20.1326 126.324 18.9813H132.157C131.143 22.9283 128.07 24.9163 123.724 24.9163C118.381 24.952 114.783 21.3537 114.783 15.803H114.796ZM120.838 14.0225H126.356C126.251 11.9274 125.1 10.8442 123.668 10.8442C121.991 10.8442 121.083 12.0312 120.838 14.0225ZM139.314 10.1794H139.42C140.677 7.76967 142.319 6.86155 144.379 6.86155C144.868 6.86155 145.181 6.93128 145.356 7.03668V12.3458H145.217C141.654 11.7166 139.541 13.3933 139.541 17.3046V24.4996H133.464V7.24587H139.227V10.1648L139.314 10.1794Z" fill="#151617"/>
<path d="M146.056 24.4985H151.889C152.099 25.2315 152.866 25.9661 154.334 25.9661C156.29 25.9661 156.953 24.7434 156.953 22.9629V21.7061H156.813C155.835 22.8412 154.579 23.6618 152.657 23.6618C148.919 23.6618 145.707 20.9051 145.707 15.5247C145.707 10.5658 148.362 6.72266 152.378 6.72266C154.681 6.72266 156.116 7.66641 157.024 9.13233H157.13V7.24643H162.888V22.1943C162.888 24.951 161.91 27.119 160.478 28.3757C158.976 29.7379 156.813 30.2616 154.365 30.2616C149.824 30.2616 146.614 28.3757 146.052 24.4985H146.056ZM157.196 15.2068C157.196 13.042 156.182 11.315 154.402 11.315C152.691 11.315 151.608 12.8523 151.608 15.2068C151.608 17.5095 152.691 19.1878 154.402 19.1878C156.182 19.1878 157.196 17.477 157.196 15.2068Z" fill="#151617"/>
</svg>
