<svg width="163" height="30" viewBox="0 0 163 30" fill="none" xmlns="http://www.w3.org/2000/svg">
<path d="M0.619141 0.03125H12.494C14.7286 0.03125 16.475 0.590695 17.6831 1.56851C19.0453 2.70363 19.8139 4.36253 19.8139 6.35222C19.8139 8.65488 18.8701 10.124 16.9502 10.9981V11.1035C19.4636 11.9418 20.8971 14.1764 20.8971 16.9006C20.8971 19.4854 19.9193 21.5108 18.2782 22.7335C16.9161 23.7113 15.0999 24.201 12.7243 24.201H0.640222V0.03125H0.619141ZM11.3216 9.49648C12.614 9.49648 13.5221 8.7992 13.5221 7.36572C13.5221 6.00358 12.5443 5.30627 11.2876 5.30627H7.20117V9.46243H11.32L11.3216 9.49648ZM11.9151 18.8563C13.347 18.8563 14.4286 17.9839 14.4286 16.3753C14.4286 14.6985 13.2935 13.8942 11.8795 13.8942H7.19955V18.853L11.9151 18.8563ZM22.0793 0.0458487H28.2964V24.2497H22.0793V0.0458487Z" fill="white"/>
<path d="M29.5352 15.6116C29.5352 10.163 33.0621 6.46094 38.5107 6.46094C43.9592 6.46094 47.4164 10.163 47.4164 15.6116C47.4164 21.0925 43.9592 24.7622 38.5107 24.7622C33.0621 24.7622 29.5352 21.0974 29.5352 15.6116ZM41.2706 15.6116C41.2706 12.6084 40.2928 10.6868 38.4409 10.6868C36.5891 10.6868 35.6842 12.5727 35.6842 15.6116C35.6842 18.6504 36.5923 20.5364 38.4409 20.5364C40.2928 20.572 41.2706 18.6845 41.2706 15.6116Z" fill="white"/>
<path d="M48.1875 15.6116C48.1875 10.163 51.7145 6.46094 57.163 6.46094C62.6115 6.46094 66.0688 10.163 66.0688 15.6116C66.0688 21.0925 62.6115 24.7622 57.163 24.7622C51.7145 24.7622 48.1875 21.0974 48.1875 15.6116ZM59.9229 15.6116C59.9229 12.6084 58.9451 10.6868 57.0933 10.6868C55.2414 10.6868 54.3366 12.5727 54.3366 15.6116C54.3366 18.6504 55.2447 20.5364 57.0933 20.5364C58.9451 20.572 59.9229 18.6845 59.9229 15.6116Z" fill="white"/>
<path d="M67.3262 6.9501H73.1039V9.5349H73.2093C74.3444 7.50792 75.9336 6.42633 78.3984 6.42633C80.5632 6.42633 82.2059 7.50958 83.0442 9.39387H83.1496C84.5475 7.12364 86.3977 6.42633 88.4928 6.42633C92.5095 6.42633 94.2202 9.39385 94.2202 13.3408V24.2379H88.1425V14.4597C88.1425 12.6792 87.5831 11.5408 86.0474 11.5408C84.5458 11.5408 83.7772 12.9387 83.7772 14.8246V24.2541H77.7692V14.4759C77.7692 12.6954 77.2098 11.557 75.6741 11.557C74.1725 11.557 73.4039 12.9548 73.4039 14.8408V24.2703H67.3262V6.98415V6.9501ZM101.903 21.966H101.834V24.2006H96.0705V0H102.13V8.73064H102.236C103.371 7.22905 104.924 6.42796 107.161 6.42796C111.49 6.42796 114.004 10.3392 114.004 15.5413C114.004 21.4082 111.279 24.7973 106.775 24.7973C104.853 24.7973 102.931 23.8893 101.885 21.9677L101.903 21.966ZM107.806 15.5056C107.806 12.7116 106.792 10.9327 104.942 10.9327C103.092 10.9327 101.903 12.7132 101.903 15.5056C101.903 18.2623 103.09 20.0785 104.942 20.0785C106.794 20.0785 107.806 18.298 107.806 15.5056ZM114.685 15.5413C114.685 10.1625 118.247 6.39065 123.415 6.39065C126 6.39065 127.956 7.19337 129.493 8.62524C131.484 10.5468 132.392 13.584 132.323 17.1126H120.728C120.972 19.2774 122.021 20.3607 123.837 20.3607C124.884 20.3607 125.828 19.8709 126.213 18.7196H132.045C131.032 22.6665 127.959 24.6546 123.613 24.6546C118.27 24.6903 114.672 21.092 114.672 15.5413H114.685ZM120.727 13.7608H126.245C126.14 11.6657 124.988 10.5825 123.556 10.5825C121.88 10.5825 120.972 11.7695 120.727 13.7608ZM139.203 9.91764H139.309C140.565 7.50796 142.208 6.59983 144.267 6.59983C144.757 6.59983 145.07 6.66956 145.245 6.77497V12.0841H145.106C141.543 11.4549 139.43 13.1316 139.43 17.0429V24.2379H133.352V6.98415H139.116V9.90304L139.203 9.91764Z" fill="white"/>
<path d="M145.944 24.2368H151.777C151.988 24.9698 152.755 25.7043 154.223 25.7043C156.178 25.7043 156.841 24.4817 156.841 22.7012V21.4444H156.702C155.724 22.5795 154.467 23.4001 152.546 23.4001C148.808 23.4001 145.596 20.6434 145.596 15.2629C145.596 10.3041 148.25 6.46094 152.267 6.46094C154.57 6.46094 156.005 7.40469 156.913 8.87061H157.018V6.98471H162.776V21.9325C162.776 24.6892 161.799 26.8573 160.367 28.114C158.865 29.4762 156.702 29.9999 154.253 29.9999C149.713 29.9999 146.502 28.114 145.941 24.2368H145.944ZM157.085 14.9451C157.085 12.7803 156.071 11.0533 154.291 11.0533C152.58 11.0533 151.497 12.5905 151.497 14.9451C151.497 17.2477 152.58 18.9261 154.291 18.9261C156.071 18.9261 157.085 17.2153 157.085 14.9451Z" fill="white"/>
</svg>
