<svg width="24" height="30" viewBox="0 0 24 30" fill="none" xmlns="http://www.w3.org/2000/svg">
<path d="M21.4286 2.84375H2.57143C1.88944 2.84375 1.23539 3.11467 0.753154 3.5969C0.270918 4.07914 0 4.73319 0 5.41518L0 24.2723C0 24.9543 0.270918 25.6084 0.753154 26.0906C1.23539 26.5728 1.88944 26.8438 2.57143 26.8438H9.92411V18.6843H6.54911V14.8438H9.92411V11.9166C9.92411 8.58714 11.9063 6.74804 14.9421 6.74804C16.3961 6.74804 17.9164 7.00732 17.9164 7.00732V10.2752H16.2413C14.5907 10.2752 14.0759 11.2995 14.0759 12.35V14.8438H17.7605L17.1712 18.6843H14.0759V26.8438H21.4286C22.1106 26.8438 22.7646 26.5728 23.2468 26.0906C23.7291 25.6084 24 24.9543 24 24.2723V5.41518C24 4.73319 23.7291 4.07914 23.2468 3.5969C22.7646 3.11467 22.1106 2.84375 21.4286 2.84375Z" fill="white"/>
</svg>
