<svg width="31" height="30" viewBox="0 0 31 30" fill="none" xmlns="http://www.w3.org/2000/svg">
<g clip-path="url(#clip0_17656_57245)">
<path d="M15.957 30C11.966 30 8.20344 28.4354 5.36252 25.5945C2.5216 22.7536 0.957031 18.9911 0.957031 15C0.957031 12.9712 1.35992 11.0006 2.15463 9.14297C2.29824 8.80728 2.63469 8.59488 2.9992 8.61053C3.364 8.6257 3.68141 8.86477 3.79666 9.21117L4.56969 11.5345L6.0101 12.4948L6.29334 9.63978C6.32316 9.33943 6.50498 9.07535 6.77498 8.94041L10.0133 7.32176L10.7898 5.61246C10.884 5.40522 11.0548 5.24256 11.2665 5.15877L12.719 4.58373L10.1152 2.62412C9.86264 2.43398 9.73162 2.12291 9.77211 1.80937C9.81254 1.49584 10.0183 1.22818 10.3109 1.10848C12.1083 0.372949 14.008 0 15.957 0C21.3618 0 26.3757 2.94586 29.0419 7.68803C29.1697 7.91525 29.19 8.18754 29.0973 8.43123C29.0046 8.67492 28.8085 8.86488 28.562 8.94979L25.4553 10.0197C25.317 10.0673 25.1688 10.0798 25.0246 10.0556L22.1148 9.57047C21.8753 9.53051 21.6629 9.39322 21.5282 9.19119L20.9969 8.39455L17.6536 10.1488L19.6758 10.6293C19.8968 10.6818 20.0888 10.8177 20.2117 11.0087L21.2025 12.5478L22.5307 12.2156C22.7709 12.1554 23.0254 12.1995 23.2314 12.3369L24.6863 13.3066C24.9308 13.4696 25.0777 13.744 25.0777 14.0379V15.6342L27.6518 18.4215C27.8017 18.5839 27.885 18.7968 27.885 19.0178V23.768C27.885 23.9669 27.8175 24.1599 27.6937 24.3155C26.3163 26.0456 24.5454 27.4764 22.5723 28.4535C20.4999 29.4796 18.2741 30 15.957 30Z" fill="#7F8CE5"/>
<path d="M29.04 7.68777C28.8319 7.31787 28.3892 7.14953 27.9879 7.28775L25.092 8.28508L22.7776 7.89918L22.0185 6.76094C21.769 6.38676 21.2772 6.26137 20.8789 6.47031L14.7565 9.68301C14.4319 9.85334 14.2471 10.2072 14.2928 10.5709C14.3385 10.9346 14.6051 11.2317 14.9617 11.3164L18.9235 12.2577L20.0637 14.029C20.2675 14.3457 20.6506 14.4974 21.016 14.4059L22.5783 14.0151L23.3182 14.5083V15.9779C23.3182 16.1989 23.4014 16.4118 23.5514 16.5742L26.1254 19.3615V23.768C26.1254 24.1416 26.3616 24.4744 26.7143 24.5976C26.8094 24.6309 26.9072 24.6469 27.0041 24.6469C27.2667 24.6469 27.5218 24.529 27.6918 24.3154C28.7268 23.0157 29.5331 21.5688 30.0884 20.0146C30.6637 18.405 30.9553 16.7179 30.9553 15C30.9553 12.4432 30.293 9.91475 29.04 7.68777ZM15.6402 16.5018L12.8955 15.9527L10.5787 13.4044C10.4094 13.2182 10.1684 13.1142 9.91673 13.1168L7.7102 13.146L7.99298 10.2959L11.076 8.75488C11.2562 8.66482 11.3999 8.51564 11.4832 8.33225L12.2418 6.66256L14.8216 5.64121C15.1172 5.5242 15.3266 5.2566 15.3691 4.94154C15.4116 4.62648 15.2806 4.31295 15.0266 4.12182L11.1706 1.21967C10.923 1.03334 10.5957 0.991094 10.3089 1.10857C6.67046 2.59879 3.69765 5.52736 2.1527 9.14336C2.06833 9.34082 2.05919 9.56236 2.12698 9.76615L2.99534 12.3759C3.0571 12.5615 3.17903 12.7212 3.34181 12.8297L5.85958 14.5083V16.3939C5.85958 16.6228 5.94882 16.8426 6.10843 17.0067L8.28477 19.2446V21.7283C8.28477 21.9339 8.35684 22.133 8.4885 22.2909L10.9131 25.2007C11.0834 25.4051 11.3326 25.517 11.5885 25.517C11.6885 25.517 11.7897 25.4999 11.8875 25.4645C12.2354 25.3385 12.4672 25.0081 12.4672 24.6381V22.6529L14.0556 21.4617C14.2769 21.2957 14.4072 21.0352 14.4072 20.7586V19.6677L16.0893 17.985C16.3184 17.7558 16.4028 17.4191 16.3089 17.1089C16.215 16.7987 15.958 16.5654 15.6402 16.5018Z" fill="#F6F7FF"/>
</g>
<defs>
<clipPath id="clip0_17656_57245">
<rect width="30" height="30" fill="white" transform="translate(0.957031)"/>
</clipPath>
</defs>
</svg>
