<svg width="29" height="30" viewBox="0 0 29 30" fill="none" xmlns="http://www.w3.org/2000/svg">
<path d="M14.0087 10.9749C11.8052 10.9749 10.007 12.7731 10.007 14.9766C10.007 17.1801 11.8052 18.9783 14.0087 18.9783C16.2122 18.9783 18.0104 17.1801 18.0104 14.9766C18.0104 12.7731 16.2122 10.9749 14.0087 10.9749ZM26.0109 14.9766C26.0109 13.3194 26.0259 11.6773 25.9328 10.0232C25.8397 8.10192 25.4014 6.39677 23.9965 4.99182C22.5885 3.58386 20.8864 3.14857 18.9651 3.05551C17.308 2.96245 15.6658 2.97746 14.0117 2.97746C12.3546 2.97746 10.7125 2.96245 9.05838 3.05551C7.13708 3.14857 5.43193 3.58687 4.02697 4.99182C2.61902 6.39977 2.18373 8.10192 2.09066 10.0232C1.9976 11.6803 2.01261 13.3224 2.01261 14.9766C2.01261 16.6307 1.9976 18.2758 2.09066 19.9299C2.18373 21.8512 2.62202 23.5564 4.02697 24.9613C5.43493 26.3693 7.13708 26.8046 9.05838 26.8976C10.7155 26.9907 12.3576 26.9757 14.0117 26.9757C15.6689 26.9757 17.311 26.9907 18.9651 26.8976C20.8864 26.8046 22.5915 26.3663 23.9965 24.9613C25.4044 23.5534 25.8397 21.8512 25.9328 19.9299C26.0289 18.2758 26.0109 16.6337 26.0109 14.9766ZM14.0087 21.1337C10.6014 21.1337 7.85156 18.3839 7.85156 14.9766C7.85156 11.5693 10.6014 8.8194 14.0087 8.8194C17.416 8.8194 20.1659 11.5693 20.1659 14.9766C20.1659 18.3839 17.416 21.1337 14.0087 21.1337ZM20.4181 10.0052C19.6225 10.0052 18.9801 9.36277 18.9801 8.56723C18.9801 7.77169 19.6225 7.12926 20.4181 7.12926C21.2136 7.12926 21.856 7.77169 21.856 8.56723C21.8563 8.75614 21.8192 8.94323 21.7471 9.1178C21.6749 9.29237 21.569 9.45098 21.4354 9.58456C21.3018 9.71814 21.1432 9.82405 20.9686 9.89623C20.7941 9.96841 20.607 10.0054 20.4181 10.0052Z" fill="white"/>
</svg>
