<svg width="24" height="25" viewBox="0 0 24 25" fill="none" xmlns="http://www.w3.org/2000/svg">
<g clip-path="url(#clip0_16774_48145)">
<path d="M0 2.56275C0 1.61325 0.789 0.84375 1.7625 0.84375H22.2375C23.211 0.84375 24 1.61325 24 2.56275V23.1248C24 24.0742 23.211 24.8438 22.2375 24.8438H1.7625C0.789 24.8438 0 24.0742 0 23.1248V2.56275ZM7.4145 20.9347V10.0972H3.813V20.9347H7.4145ZM5.6145 8.61675C6.87 8.61675 7.6515 7.78575 7.6515 6.74475C7.629 5.68125 6.8715 4.87275 5.6385 4.87275C4.4055 4.87275 3.6 5.68275 3.6 6.74475C3.6 7.78575 4.3815 8.61675 5.5905 8.61675H5.6145ZM12.9765 20.9347V14.8822C12.9765 14.5583 13.0005 14.2343 13.0965 14.0033C13.356 13.3567 13.9485 12.6862 14.9445 12.6862C16.248 12.6862 16.7685 13.6793 16.7685 15.1373V20.9347H20.37V14.7188C20.37 11.3888 18.594 9.84075 16.224 9.84075C14.313 9.84075 13.4565 10.8907 12.9765 11.6302V11.6678H12.9525C12.9605 11.6552 12.9685 11.6427 12.9765 11.6302V10.0972H9.3765C9.4215 11.1143 9.3765 20.9347 9.3765 20.9347H12.9765Z" fill="white"/>
</g>
<defs>
<clipPath id="clip0_16774_48145">
<rect width="24" height="24" fill="white" transform="translate(0 0.84375)"/>
</clipPath>
</defs>
</svg>
