<svg width="222" height="71" viewBox="0 0 222 71" fill="none" xmlns="http://www.w3.org/2000/svg">
<rect x="0.832031" y="0.238281" width="221.167" height="70" rx="10" fill="#67A948"/>
<g clip-path="url(#clip0_14876_137765)">
<path d="M41.569 35.3535L39.5596 33.2704L23.7145 16.844C23.3 17.4439 23.0703 18.1632 23.0703 18.9286V51.5419C23.0703 52.3652 23.3353 53.1355 23.8122 53.7617L39.5596 37.4363L41.569 35.3535Z" fill="#F7FFF3"/>
<path d="M48.9972 43.056L43.2053 37.0513L39.5609 40.8288L25.793 55.1016C26.7393 55.3668 27.7535 55.2462 28.6369 54.7387L39.5609 48.4707L48.9972 43.056Z" fill="#F7FFF3"/>
<path d="M49.1435 27.5038L39.5607 22.0052L28.6367 15.7372C28.0561 15.4039 27.419 15.2367 26.7818 15.2367C26.3891 15.2367 25.9964 15.3008 25.6172 15.4274L39.5607 29.8824L43.2051 33.6602L49.1435 27.5038Z" fill="#F7FFF3"/>
<path d="M57.0547 38.4318L51.1019 41.8477L44.8398 35.3563L51.2483 28.7129L57.0547 32.0445C58.2163 32.711 58.9099 33.9051 58.9099 35.2382C58.9099 36.5715 58.2163 37.7653 57.0547 38.4318Z" fill="#F7FFF3"/>
<path d="M41.5719 35.3586L39.5625 33.2754V37.4414L41.5719 35.3586Z" fill="#F7FFF3"/>
<path d="M43.2069 37.0533L39.5625 40.8307V48.4727L48.9988 43.0579L43.2069 37.0533Z" fill="#F7FFF3"/>
<path d="M49.1453 27.5038L39.5625 22.0052V29.8824L43.2069 33.6602L49.1453 27.5038Z" fill="#F7FFF3"/>
</g>
<path d="M83.984 47.2383H87.152V37.8303H79.52V40.8303H83.696C83.552 42.9423 82.064 44.5023 79.832 44.5023C77.072 44.5023 75.2 42.1503 75.2 38.6463C75.2 35.1423 77.072 32.8383 79.784 32.8383C81.728 32.8383 83.048 33.9663 83.504 35.9103L86.888 34.7823C85.808 31.6863 83.408 29.7423 79.736 29.7423C75.032 29.7423 71.648 33.4863 71.648 38.7183C71.648 43.9023 74.984 47.5023 79.496 47.5023C81.656 47.5023 83.288 46.6623 83.984 45.5823V47.2383ZM101.563 40.9263C101.563 37.0143 99.0193 34.3743 95.3713 34.3743C91.7233 34.3743 89.1793 37.0143 89.1793 40.9263C89.1793 44.8623 91.7233 47.5023 95.3713 47.5023C99.0193 47.5023 101.563 44.8623 101.563 40.9263ZM92.5153 40.9263C92.5153 38.5503 93.6193 37.1583 95.3713 37.1583C97.1233 37.1583 98.2033 38.5503 98.2033 40.9263C98.2033 43.3263 97.1233 44.7183 95.3713 44.7183C93.6193 44.7183 92.5153 43.3263 92.5153 40.9263ZM115.274 40.9263C115.274 37.0143 112.73 34.3743 109.082 34.3743C105.434 34.3743 102.89 37.0143 102.89 40.9263C102.89 44.8623 105.434 47.5023 109.082 47.5023C112.73 47.5023 115.274 44.8623 115.274 40.9263ZM106.226 40.9263C106.226 38.5503 107.33 37.1583 109.082 37.1583C110.834 37.1583 111.914 38.5503 111.914 40.9263C111.914 43.3263 110.834 44.7183 109.082 44.7183C107.33 44.7183 106.226 43.3263 106.226 40.9263ZM128.985 45.8463V34.6143H125.625V35.9103C124.977 35.0463 123.681 34.3743 122.121 34.3743C118.665 34.3743 116.649 37.1823 116.649 40.6143C116.649 44.0703 118.665 46.8783 122.121 46.8783C123.705 46.8783 124.977 46.2063 125.625 45.3423V46.2063C125.625 48.2943 124.401 49.1583 122.649 49.1583C121.209 49.1583 120.225 48.3903 119.865 47.1423L116.721 48.0543C117.441 50.5263 119.553 51.7743 122.601 51.7743C126.345 51.7743 128.985 49.6623 128.985 45.8463ZM125.649 40.4703V40.8063C125.649 42.8703 124.521 44.0463 122.913 44.0463C121.089 44.0463 120.057 42.7263 120.057 40.6143C120.057 38.5023 121.089 37.2063 122.913 37.2063C124.521 37.2063 125.649 38.3823 125.649 40.4703ZM135.119 30.0063H131.759V47.2383H135.119V30.0063ZM143.396 47.5023C145.916 47.5023 148.052 46.2063 148.964 43.9023L146.132 42.8943C145.748 44.1183 144.716 44.7423 143.42 44.7423C141.764 44.7423 140.588 43.5903 140.348 41.6703H149.036V40.6863C149.036 37.1583 147.02 34.3743 143.276 34.3743C139.7 34.3743 137.132 37.2063 137.132 40.9263C137.132 44.8383 139.676 47.5023 143.396 47.5023ZM143.252 37.0623C144.884 37.0623 145.676 38.1423 145.7 39.3903H140.468C140.876 37.8543 141.908 37.0623 143.252 37.0623ZM159.524 40.9023H163.052C167.012 40.9023 169.484 39.0063 169.484 35.4543C169.484 31.8783 167.012 30.0063 163.052 30.0063H155.996V47.2383H159.524V40.9023ZM159.524 37.9023V33.0063H162.86C164.924 33.0063 165.98 33.8943 165.98 35.4543C165.98 36.9903 164.924 37.9023 162.86 37.9023H159.524ZM174.377 30.0063H171.017V47.2383H174.377V30.0063ZM180.566 47.4543C182.222 47.4543 183.494 46.9503 184.31 46.0623C184.862 47.1183 186.158 47.5503 188.294 47.2383V44.7183C187.55 44.8143 187.262 44.5983 187.262 43.9263V38.7663C187.262 35.8383 185.342 34.3743 182.15 34.3743C179.15 34.3743 177.23 36.1023 176.654 38.2383L179.846 38.8383C180.134 37.7103 180.782 37.1583 182.03 37.1583C183.422 37.1583 183.974 37.8303 183.974 38.9103V39.1023L180.83 39.7023C178.286 40.1583 176.27 41.2143 176.27 43.7343C176.27 45.9663 178.094 47.4543 180.566 47.4543ZM183.974 42.7503C183.974 44.1663 182.654 44.9103 181.238 44.9103C180.23 44.9103 179.582 44.4063 179.582 43.5423C179.582 42.5343 180.398 42.1743 181.502 41.9583L183.974 41.4543V42.7503ZM195.981 47.9583L200.973 34.6143H197.589L194.805 42.9183L191.949 34.6143H188.469L193.005 46.7343L192.597 47.7423C192.237 48.6543 191.757 48.8943 190.869 48.8943C190.485 48.8943 190.269 48.8703 189.909 48.8463V51.5583C190.341 51.6063 190.581 51.6303 191.229 51.6303C194.013 51.6303 195.165 50.1903 195.981 47.9583Z" fill="#F7FFF3"/>
<path d="M73.208 17.4943L71.064 23.2383H72.232L72.688 22.0063H75.056L75.512 23.2383H76.704L74.552 17.4943H73.208ZM73.864 18.7983L74.68 21.0063H73.056L73.864 18.7983ZM79.8394 23.2383L81.9434 17.4943H80.7354L79.2394 21.7423L77.7514 17.4943H76.4874L78.6074 23.2383H79.8394ZM83.8752 17.4943L81.7312 23.2383H82.8992L83.3552 22.0063H85.7232L86.1792 23.2383H87.3712L85.2192 17.4943H83.8752ZM84.5312 18.7983L85.3472 21.0063H83.7232L84.5312 18.7983ZM89.5128 17.4943H88.3368V23.2383H89.5128V17.4943ZM90.9165 23.2383H94.7325V22.2223H92.0925V17.4943H90.9165V23.2383ZM97.5205 17.4943L95.3765 23.2383H96.5445L97.0005 22.0063H99.3685L99.8245 23.2383H101.017L98.8645 17.4943H97.5205ZM98.1765 18.7983L98.9925 21.0063H97.3685L98.1765 18.7983ZM101.982 23.2383H104.494C105.71 23.2383 106.438 22.6383 106.438 21.6303C106.438 20.9343 106.038 20.4463 105.462 20.2543C105.854 20.0863 106.262 19.7103 106.262 19.0223C106.262 18.0383 105.598 17.4943 104.35 17.4943H101.982V23.2383ZM103.11 19.8303V18.4703H104.238C104.822 18.4703 105.15 18.7023 105.15 19.1503C105.15 19.6063 104.822 19.8303 104.238 19.8303H103.11ZM103.11 20.7823H104.414C104.99 20.7823 105.302 21.0863 105.302 21.5183C105.302 21.9583 104.99 22.2543 104.414 22.2543H103.11V20.7823ZM107.531 23.2383H111.347V22.2223H108.707V17.4943H107.531V23.2383ZM112.368 17.4943V23.2383H116.336V22.2223H113.528V20.7983H115.88V19.7903H113.528V18.5103H116.336V17.4943H112.368ZM119.271 20.3663C119.271 22.1023 120.407 23.3263 121.991 23.3263C123.567 23.3263 124.703 22.1023 124.703 20.3663C124.703 18.6303 123.567 17.4063 121.991 17.4063C120.407 17.4063 119.271 18.6303 119.271 20.3663ZM123.519 20.3663C123.519 21.5423 122.887 22.2943 121.991 22.2943C121.087 22.2943 120.455 21.5423 120.455 20.3663C120.455 19.1903 121.087 18.4383 121.991 18.4383C122.887 18.4383 123.519 19.1903 123.519 20.3663ZM130.666 17.4943H129.538V21.2623L127.018 17.4943H125.826V23.2383H126.954V19.2783L129.642 23.2383H130.666V17.4943Z" fill="#F7FFF3"/>
<defs>
<clipPath id="clip0_14876_137765">
<rect width="40.1674" height="40" fill="white" transform="matrix(1 0 0 -1 20.832 55.2383)"/>
</clipPath>
</defs>
</svg>
