<svg width="158" height="31" viewBox="0 0 158 31" fill="none" xmlns="http://www.w3.org/2000/svg">
<g clip-path="url(#clip0_16911_177545)">
<path d="M63.8349 16.2168V19.8245C63.6743 19.8874 63.4997 20.0166 63.325 20.0148C59.8064 19.9869 56.2791 20.1056 52.7744 19.8629C47.9042 19.5276 44.1708 15.3594 44.0032 10.4106C43.8408 5.56315 47.4502 1.19411 52.2418 0.457211C52.7792 0.366325 53.3226 0.315546 53.8675 0.305291C57.1347 0.291322 60.4019 0.305291 63.7738 0.305291V4.1103C60.6917 4.1103 57.587 4.08411 54.4822 4.1103C51.8629 4.13824 49.7674 5.14406 48.6079 7.63765C46.9228 11.2488 49.0567 15.4607 53.0049 15.9916C55.1999 16.2867 57.4525 16.1662 59.6789 16.2151C61.0165 16.2395 62.3541 16.2168 63.8349 16.2168ZM107.646 0.265132V4.09633C106.626 4.09633 105.608 4.07712 104.592 4.09633C101.922 4.15919 99.222 4.016 96.5922 4.37398C93.6062 4.78085 91.7255 7.44557 91.8355 10.4473C91.8713 11.8517 92.4188 13.1946 93.3751 14.2236C94.3315 15.2527 95.6308 15.8969 97.0288 16.0352C99.0911 16.2413 101.183 16.1801 103.261 16.2098C104.686 16.2325 106.111 16.2098 107.602 16.2098V20.2261C103.387 20.0236 99.1434 20.2087 95.0468 19.5189C90.5521 18.7611 87.5713 14.2331 87.8384 9.7401C88.1283 4.86292 91.5439 1.06839 96.2622 0.413556C97.048 0.312527 97.8396 0.263527 98.6318 0.266874C101.595 0.256397 104.557 0.265132 107.646 0.265132ZM41.9234 0.382125V4.09633C39.2255 4.09633 36.5206 4.07188 33.8175 4.10855C32.7348 4.12427 31.6295 4.15919 30.5782 4.38969C27.8576 4.98865 25.9612 7.6167 26.0975 10.4333C26.2337 13.25 28.3675 15.7331 31.1388 16.0073C33.3495 16.2256 35.5881 16.1697 37.8146 16.2116C39.1434 16.236 40.4723 16.2116 41.878 16.2116V20.0393C40.8635 20.0393 39.8507 20.0498 38.8361 20.0393C36.2604 20.0044 33.6778 20.0864 31.1143 19.8926C28.718 19.7315 26.469 18.6785 24.8107 16.941C23.1525 15.2036 22.2054 12.9079 22.1562 10.5067C22.0183 5.32741 25.5579 0.912974 30.6917 0.446734C34.364 0.113207 38.0922 0.382125 41.9234 0.382125Z" fill="#151617"/>
<path d="M149.631 16.8315V19.9573H145.789V17.0603C144.329 16.2727 142.95 15.693 141.755 14.8496C140.603 14.0642 139.649 13.0207 138.971 11.8021C138.292 10.5834 137.908 9.22325 137.847 7.82978C137.701 5.3746 137.818 2.90371 137.818 0.352484H141.818C141.818 2.71337 141.734 5.02711 141.841 7.33735C141.963 9.97938 143.421 11.7885 145.871 12.6668C149.786 14.0638 153.555 11.0673 153.665 6.48869C153.715 4.46657 153.665 2.4427 153.665 0.34375H157.733C157.585 3.4136 157.777 6.51488 157.209 9.46948C156.452 13.4072 153.518 15.6092 149.631 16.8315Z" fill="#151617"/>
<path d="M123.765 4.13736H115.98V0.351562H135.625V4.08323H127.83V19.9738H123.765V4.13736Z" fill="#151617"/>
<path d="M20.0286 4.09779H12.1602V19.9692H8.20498V4.13097H0.308594V0.324219H20.0286V4.09779Z" fill="#151617"/>
<path d="M69.8749 12.0477V19.9424H66V0.351562H69.8522V8.16937H79.3289V12.046L69.8749 12.0477Z" fill="#151617"/>
<path d="M85.744 19.9825H81.9023V0.351562H85.744V19.9825Z" fill="#151617"/>
<path d="M113.621 19.9724H109.816V0.371094H113.628L113.621 19.9724Z" fill="#151617"/>
<path d="M31.7009 11.969C31.6747 11.6302 31.6363 11.3421 31.6328 11.054V8.32812H41.9023V11.969H31.7009Z" fill="#151617"/>
<path d="M93.4256 30.2586C91.8977 30.2097 90.6439 28.9717 90.6683 27.538C90.6963 26.0014 92.1002 24.8035 93.7975 24.8698C95.2836 24.9274 96.5496 26.2493 96.4815 27.6742C96.4099 29.1742 95.0653 30.311 93.4256 30.2586Z" fill="#151617"/>
<path d="M81.7893 27.5727C81.7736 29.0989 80.4884 30.2776 78.8714 30.2497C77.2544 30.2217 76.0093 29.0046 76.0477 27.4749C76.0844 26.0553 77.3784 24.8556 78.8923 24.8556C80.4796 24.8399 81.8033 26.078 81.7893 27.5727Z" fill="#151617"/>
<path d="M64.2566 24.8755C66.0028 24.9069 67.0331 25.9529 66.9964 27.6695C66.9632 29.2638 65.8893 30.2504 64.1867 30.2486C62.5837 30.2486 61.3317 28.9931 61.3928 27.4547C61.4469 25.9704 62.6937 24.8476 64.2566 24.8755Z" fill="#151617"/>
</g>
<defs>
<clipPath id="clip0_16911_177545">
<rect width="157.423" height="30" fill="white" transform="translate(0.308594 0.261719)"/>
</clipPath>
</defs>
</svg>
