<svg width="169" height="31" viewBox="0 0 169 31" fill="none" xmlns="http://www.w3.org/2000/svg">
<path d="M2.9439 1.31775H8.66349V6.42051H12.785V10.4859H8.66349V18.869C8.66349 20.6354 9.22423 20.9718 11.1308 20.9718H12.785V25.1213H9.14012C4.51399 25.1213 2.9439 24.2241 2.9439 19.8784V10.4859H0V6.42051H2.9439V1.31775ZM32.1867 19.2896C30.5044 23.7194 26.5792 25.626 22.8503 25.626C16.7662 25.626 12.5887 21.9531 12.5887 15.7008C12.5887 9.70086 17.1307 5.91584 22.626 5.91584C28.8503 5.91584 32.6633 10.6261 32.2708 17.2709H18.3924C18.5606 19.9344 20.6354 21.14 22.7101 21.14C24.897 21.14 26.2708 20.355 26.9157 19.2615L32.1867 19.2896ZM18.4765 13.7943H26.5792C26.4671 11.4392 24.8409 10.2616 22.654 10.2616C20.5793 10.2616 18.7849 11.327 18.4765 13.7943ZM51.9529 13.2896H46.6258C46.1212 11.1027 44.7473 10.3457 43.0651 10.3457C41.0184 10.3457 38.9997 11.7476 38.9997 15.7569C38.9997 19.8223 41.0184 21.1681 43.0651 21.1681C45.1679 21.1681 46.4856 20.0746 46.9062 18.2802H52.2333C50.9436 23.8316 46.4576 25.5979 42.7006 25.5979C36.5324 25.5979 33.1399 21.6447 33.1399 15.6728C33.1399 9.70086 37.0371 5.88781 42.7006 5.88781C46.5697 5.88781 50.8314 7.65415 51.9529 13.2896ZM58.5977 8.91582C59.4108 7.51396 61.4575 6.02799 64.4014 6.02799C69.1958 6.02799 70.7098 8.85974 70.7098 13.9345V25.1774H64.9902V15.3924C64.9902 12.7289 64.9061 10.542 62.1304 10.542C59.6631 10.542 58.6257 12.1401 58.6257 15.6447V25.2335H52.9062V0H58.6257L58.5977 8.91582ZM83.8872 11.9438C83.4947 10.542 82.0368 10.1495 80.2424 10.1495C78.2518 10.1495 77.2705 10.6261 77.2705 11.5513C77.2705 12.4205 77.9433 12.9251 79.5695 13.2335L83.0742 13.8504C87.5601 14.6634 89.719 16.0092 89.719 19.2896C89.719 23.4951 85.8498 25.626 80.663 25.626C75.6723 25.626 72.1397 23.5232 71.4948 19.0933H76.8219C77.3265 20.8877 78.7845 21.4484 80.7471 21.4484C82.7938 21.4484 84.2237 20.8877 84.2237 19.7662C84.2237 18.9531 83.4947 18.3924 81.2798 18.0279L77.9434 17.4672C74.3266 16.8784 71.8593 15.056 71.8593 11.7476C71.8593 8.01863 75.7845 5.97191 80.4106 5.97191C84.6723 5.97191 88.5694 7.68218 89.2704 11.9719L83.8872 11.9438ZM92.6629 1.31775H98.3825V6.42051H102.504V10.4859H98.3825V18.869C98.3825 20.6354 98.9432 20.9718 100.85 20.9718H102.476V25.1213H98.8591C94.2329 25.1213 92.6629 24.2241 92.6629 19.8784V10.4859H89.719V6.42051H92.6629V1.31775ZM115.569 12.7289C115.569 10.4859 114.504 9.75693 112.401 9.75693C110.551 9.75693 109.317 10.7102 109.065 12.5046H103.71C103.99 8.9719 107.326 5.85977 112.878 5.85977C118.289 5.85977 121.345 8.04667 121.233 13.7382L121.149 17.8036V19.7662C121.149 21.8129 121.289 24.0279 121.569 25.1774H115.934L115.85 22.9064C114.448 24.897 112.233 25.626 109.541 25.626C105.981 25.626 103.065 23.5512 103.065 20.1307C103.065 15.5326 108.252 14.0466 115.513 13.4859L115.569 12.7289ZM115.737 16.8503C111.728 17.2429 109.065 17.6354 109.065 19.7101C109.065 20.9157 110.214 21.7288 111.7 21.7288C113.999 21.7288 115.737 20.7475 115.737 17.2989V16.8503ZM134.354 11.9438C133.849 11.8597 133.289 11.8036 132.784 11.8317C130.008 11.8317 128.578 12.841 128.578 15.7569V25.1493H122.831V6.42051H128.354V9.98124C129.223 7.73826 130.793 6.42051 133.457 6.30836H133.878C134.046 6.30836 134.186 6.30836 134.354 6.3364V11.9438ZM147.027 11.9438C146.634 10.542 145.176 10.1495 143.382 10.1495C141.391 10.1495 140.41 10.6261 140.41 11.5513C140.41 12.4205 141.083 12.9251 142.709 13.2335L146.186 13.8504C150.672 14.6634 152.831 16.0092 152.831 19.2896C152.831 23.4951 148.962 25.626 143.775 25.626C138.812 25.626 135.251 23.5232 134.606 19.0933H139.934C140.438 20.8877 141.896 21.4484 143.859 21.4484C145.905 21.4484 147.335 20.8877 147.335 19.7662C147.335 18.9531 146.606 18.3924 144.391 18.0279L141.055 17.4672C137.438 16.8784 134.999 15.056 134.999 11.7476C134.999 8.01863 138.924 5.97191 143.55 5.97191C147.812 5.97191 151.709 7.68218 152.41 11.9719L147.027 11.9438Z" fill="white"/>
<path d="M152.719 30.0021V25.1797H168.195V30.0021H152.719Z" fill="white"/>
</svg>
