<svg width="169" height="31" viewBox="0 0 169 31" fill="none" xmlns="http://www.w3.org/2000/svg">
<path d="M3.05718 1.57947H8.77677V6.68223H12.8982V10.7476H8.77677V19.1307C8.77677 20.8971 9.33751 21.2335 11.244 21.2335H12.8982V25.383H9.2534C4.62727 25.383 3.05718 24.4858 3.05718 20.1401V10.7476H0.113281V6.68223H3.05718V1.57947ZM32.3 19.5513C30.6177 23.9812 26.6925 25.8877 22.9636 25.8877C16.8795 25.8877 12.702 22.2148 12.702 15.9625C12.702 9.96258 17.244 6.17756 22.7393 6.17756C28.9635 6.17756 32.7766 10.8878 32.3841 17.5326H18.5057C18.6739 20.1962 20.7486 21.4017 22.8234 21.4017C25.0103 21.4017 26.3841 20.6167 27.029 19.5233L32.3 19.5513ZM18.5898 14.056H26.6925C26.5804 11.7009 24.9542 10.5233 22.7673 10.5233C20.6926 10.5233 18.8982 11.5887 18.5898 14.056ZM52.0662 13.5513H46.7391C46.2344 11.3644 44.8606 10.6074 43.1784 10.6074C41.1317 10.6074 39.113 12.0093 39.113 16.0186C39.113 20.084 41.1317 21.4298 43.1784 21.4298C45.2812 21.4298 46.5989 20.3363 47.0195 18.542H52.3465C51.0568 24.0933 46.5709 25.8597 42.8139 25.8597C36.6457 25.8597 33.2532 21.9064 33.2532 15.9345C33.2532 9.96258 37.1504 6.14953 42.8139 6.14953C46.683 6.14953 50.9447 7.91587 52.0662 13.5513ZM58.711 9.17754C59.5241 7.77568 61.5708 6.28971 64.5147 6.28971C69.309 6.28971 70.823 9.12146 70.823 14.1962V25.4391H65.1035V15.6541C65.1035 12.9906 65.0193 10.8037 62.2437 10.8037C59.7764 10.8037 58.739 12.4018 58.739 15.9065V25.4952H53.0194V0.261719H58.739L58.711 9.17754ZM84.0005 12.2056C83.608 10.8037 82.1501 10.4112 80.3557 10.4112C78.365 10.4112 77.3837 10.8878 77.3837 11.813C77.3837 12.6822 78.0566 13.1869 79.6828 13.4953L83.1874 14.1121C87.6734 14.9252 89.8322 16.2709 89.8322 19.5513C89.8322 23.7569 85.9631 25.8877 80.7762 25.8877C75.7856 25.8877 72.2529 23.7849 71.6081 19.355H76.9351C77.4398 21.1494 78.8977 21.7102 80.8603 21.7102C82.9071 21.7102 84.337 21.1494 84.337 20.0279C84.337 19.2148 83.608 18.6541 81.3931 18.2896L78.0566 17.7289C74.4398 17.1401 71.9726 15.3177 71.9726 12.0093C71.9726 8.28035 75.8978 6.23363 80.5239 6.23363C84.7855 6.23363 88.6827 7.9439 89.3837 12.2336L84.0005 12.2056ZM92.7761 1.57947H98.4957V6.68223H102.617V10.7476H98.4957V19.1307C98.4957 20.8971 99.0565 21.2335 100.963 21.2335H102.589V25.383H98.9724C94.3462 25.383 92.7761 24.4858 92.7761 20.1401V10.7476H89.8322V6.68223H92.7761V1.57947ZM115.683 12.9906C115.683 10.7476 114.617 10.0187 112.514 10.0187C110.664 10.0187 109.43 10.9719 109.178 12.7663H103.823C104.103 9.23362 107.44 6.12149 112.991 6.12149C118.402 6.12149 121.458 8.30839 121.346 13.9999L121.262 18.0653V20.0279C121.262 22.0746 121.402 24.2896 121.682 25.4391H116.047L115.963 23.1681C114.561 25.1587 112.346 25.8877 109.655 25.8877C106.094 25.8877 103.178 23.8129 103.178 20.3924C103.178 15.7943 108.365 14.3083 115.626 13.7476L115.683 12.9906ZM115.851 17.1121C111.841 17.5046 109.178 17.8971 109.178 19.9718C109.178 21.1774 110.327 21.9905 111.813 21.9905C114.112 21.9905 115.851 21.0092 115.851 17.5607V17.1121ZM134.467 12.2056C133.963 12.1214 133.402 12.0654 132.897 12.0934C130.122 12.0934 128.692 13.1027 128.692 16.0186V25.4111H122.944V6.68223H128.467V10.243C129.337 7.99998 130.907 6.68223 133.57 6.57008H133.991C134.159 6.57008 134.299 6.57008 134.467 6.59812V12.2056ZM147.14 12.2056C146.748 10.8037 145.29 10.4112 143.495 10.4112C141.505 10.4112 140.523 10.8878 140.523 11.813C140.523 12.6822 141.196 13.1869 142.823 13.4953L146.299 14.1121C150.785 14.9252 152.944 16.2709 152.944 19.5513C152.944 23.7569 149.075 25.8877 143.888 25.8877C138.925 25.8877 135.365 23.7849 134.72 19.355H140.047C140.551 21.1494 142.009 21.7102 143.972 21.7102C146.019 21.7102 147.449 21.1494 147.449 20.0279C147.449 19.2148 146.72 18.6541 144.505 18.2896L141.168 17.7289C137.552 17.1401 135.112 15.3177 135.112 12.0093C135.112 8.28035 139.037 6.23363 143.664 6.23363C147.925 6.23363 151.822 7.9439 152.523 12.2336L147.14 12.2056Z" fill="#151617"/>
<path d="M152.832 30.2599V25.4375H168.309V30.2599H152.832Z" fill="#151617"/>
</svg>
