<svg width="158" height="30" viewBox="0 0 158 30" fill="none" xmlns="http://www.w3.org/2000/svg">
<g clip-path="url(#clip0_16911_190155)">
<path d="M63.7217 15.9551V19.5628C63.561 19.6257 63.3864 19.7549 63.2118 19.7531C59.6931 19.7252 56.1658 19.8439 52.6611 19.6012C47.7909 19.2659 44.0575 15.0977 43.8899 10.1489C43.7275 5.30143 47.3369 0.932396 52.1285 0.195493C52.6659 0.104606 53.2093 0.0538269 53.7543 0.0435726C57.0214 0.0296029 60.2886 0.0435726 63.6605 0.0435726V3.84858C60.5785 3.84858 57.4737 3.82239 54.3689 3.84858C51.7496 3.87652 49.6541 4.88234 48.4946 7.37593C46.8096 10.9871 48.9434 15.199 52.8916 15.7298C55.0866 16.025 57.3392 15.9045 59.5657 15.9534C60.9033 15.9778 62.2409 15.9551 63.7217 15.9551ZM107.532 0.00341306V3.83461C106.513 3.83461 105.495 3.8154 104.478 3.83461C101.808 3.89747 99.1087 3.75429 96.4789 4.11226C93.4929 4.51913 91.6122 7.18386 91.7223 10.1856C91.758 11.59 92.3055 12.9329 93.2618 13.9619C94.2182 14.9909 95.5175 15.6352 96.9155 15.7735C98.9778 15.9795 101.07 15.9184 103.148 15.9481C104.573 15.9708 105.998 15.9481 107.489 15.9481V19.9644C103.273 19.7619 99.0302 19.947 94.9335 19.2572C90.4388 18.4993 87.458 13.9714 87.7252 9.47838C88.015 4.6012 91.4306 0.806668 96.1489 0.151837C96.9347 0.0508082 97.7263 0.00180801 98.5185 0.00515565C101.482 -0.00532165 104.443 0.00341306 107.532 0.00341306ZM41.8101 0.120407V3.83461C39.1122 3.83461 36.4073 3.81016 33.7042 3.84683C32.6215 3.86255 31.5162 3.89748 30.465 4.12798C27.7444 4.72693 25.848 7.35498 25.9842 10.1716C26.1204 12.9883 28.2543 15.4714 31.0255 15.7456C33.2362 15.9638 35.4749 15.9079 37.7013 15.9499C39.0302 15.9743 40.359 15.9499 41.7647 15.9499V19.7776C40.7502 19.7776 39.7374 19.788 38.7228 19.7776C36.1471 19.7426 33.5645 19.8247 31.001 19.6309C28.6047 19.4698 26.3557 18.4167 24.6975 16.6793C23.0392 14.9419 22.0921 12.6462 22.043 10.245C21.905 5.06569 25.4446 0.651256 30.5785 0.185016C34.2508 -0.148512 37.9789 0.120407 41.8101 0.120407Z" fill="white"/>
<path d="M149.514 16.5698V19.6955H145.672V16.7986C144.212 16.011 142.833 15.4313 141.638 14.5879C140.486 13.8025 139.532 12.759 138.854 11.5404C138.175 10.3217 137.79 8.96154 137.73 7.56807C137.583 5.11288 137.7 2.64199 137.7 0.0907655H141.701C141.701 2.45165 141.617 4.76539 141.724 7.07563C141.846 9.71766 143.304 11.5267 145.754 12.4051C149.669 13.8021 153.437 10.8055 153.547 6.22697C153.598 4.20485 153.547 2.18098 153.547 0.0820312H157.616C157.468 3.15188 157.66 6.25316 157.092 9.20776C156.334 13.1455 153.401 15.3475 149.514 16.5698Z" fill="white"/>
<path d="M123.652 3.87564H115.867V0.0898438H135.512V3.82151H127.717V19.7121H123.652V3.87564Z" fill="white"/>
<path d="M19.9153 3.83607H12.0469V19.7074H8.0917V3.86925H0.195312V0.0625H19.9153V3.83607Z" fill="white"/>
<path d="M69.7577 11.786V19.6806H65.8828V0.0898438H69.735V7.90765H79.2117V11.7843L69.7577 11.786Z" fill="white"/>
<path d="M85.6307 19.7208H81.7891V0.0898438H85.6307V19.7208Z" fill="white"/>
<path d="M113.508 19.7107H109.703V0.109375H113.515L113.508 19.7107Z" fill="white"/>
<path d="M31.5915 11.7073C31.5653 11.3685 31.5269 11.0804 31.5234 10.7923V8.06641H41.7929V11.7073H31.5915Z" fill="white"/>
<path d="M93.3123 29.9969C91.7844 29.948 90.5306 28.71 90.555 27.2763C90.583 25.7397 91.9869 24.5417 93.6843 24.6081C95.1703 24.6657 96.4363 25.9876 96.3682 27.4125C96.2966 28.9125 94.952 30.0493 93.3123 29.9969Z" fill="white"/>
<path d="M81.6721 27.311C81.6564 28.8372 80.3712 30.0159 78.7542 29.988C77.1372 29.96 75.8921 28.7429 75.9306 27.2132C75.9672 25.7935 77.2612 24.5939 78.7751 24.5939C80.3625 24.5782 81.6861 25.8162 81.6721 27.311Z" fill="white"/>
<path d="M64.1394 24.6138C65.8856 24.6452 66.9159 25.6912 66.8792 27.4077C66.846 29.002 65.7721 29.9887 64.0695 29.9869C62.4665 29.9869 61.2145 28.7314 61.2756 27.193C61.3297 25.7087 62.5765 24.5859 64.1394 24.6138Z" fill="white"/>
</g>
<defs>
<clipPath id="clip0_16911_190155">
<rect width="157.423" height="30" fill="white" transform="translate(0.195312)"/>
</clipPath>
</defs>
</svg>
