<svg width="24" height="20" viewBox="0 0 24 20" fill="none" xmlns="http://www.w3.org/2000/svg">
<path d="M24 2.56608C23.1174 2.9468 22.157 3.22081 21.1676 3.32753C22.1948 2.71732 22.9639 1.75329 23.3308 0.616314C22.367 1.18968 21.3111 1.59173 20.2101 1.80463C19.7499 1.31265 19.1933 0.920719 18.575 0.653254C17.9567 0.385789 17.2899 0.248524 16.6163 0.250012C13.8906 0.250012 11.6986 2.45936 11.6986 5.17057C11.6986 5.5513 11.7447 5.93202 11.8197 6.29832C7.73849 6.08489 4.09855 4.13512 1.67864 1.1499C1.23771 1.90303 1.00665 2.76055 1.00949 3.63326C1.00949 5.34075 1.87766 6.84633 3.20154 7.73181C2.42136 7.70108 1.65944 7.48664 0.977767 7.10592V7.16649C0.977767 9.55755 2.66795 11.539 4.92056 11.9948C4.49761 12.1046 4.06251 12.1608 3.62553 12.162C3.30537 12.162 3.00252 12.1303 2.69679 12.0871C3.31979 14.0368 5.134 15.453 7.29432 15.4991C5.60413 16.823 3.48708 17.6018 1.18832 17.6018C0.775868 17.6018 0.395145 17.5874 0 17.5412C2.18051 18.9401 4.7677 19.7477 7.5539 19.7477C16.599 19.7477 21.5484 12.2543 21.5484 5.75031C21.5484 5.53688 21.5484 5.32344 21.534 5.11C22.4915 4.40913 23.3309 3.54096 24 2.56608Z" fill="#14290A"/>
</svg>
