<svg width="24" height="25" viewBox="0 0 24 25" fill="none" xmlns="http://www.w3.org/2000/svg">
<path d="M20 8.375C19.4167 8.63542 18.7865 8.8125 18.1094 8.90625C18.8177 8.48958 19.3021 7.88021 19.5625 7.07812C18.8854 7.47396 18.1875 7.73958 17.4688 7.875C16.8333 7.1875 16.0365 6.84375 15.0781 6.84375C14.1719 6.84375 13.3984 7.16406 12.7578 7.80469C12.1172 8.44531 11.7969 9.21875 11.7969 10.125C11.7969 10.4271 11.8229 10.6771 11.875 10.875C10.5312 10.8021 9.27083 10.4635 8.09375 9.85938C6.91667 9.25521 5.91667 8.44792 5.09375 7.4375C4.79167 7.95833 4.64062 8.51042 4.64062 9.09375C4.64062 10.2812 5.11458 11.1927 6.0625 11.8281C5.57292 11.8177 5.05208 11.6823 4.5 11.4219V11.4531C4.5 12.2344 4.76042 12.9297 5.28125 13.5391C5.80208 14.1484 6.44271 14.526 7.20312 14.6719C6.90104 14.7552 6.63542 14.7969 6.40625 14.7969C6.27083 14.7969 6.06771 14.776 5.79688 14.7344C6.01562 15.3906 6.40365 15.9323 6.96094 16.3594C7.51823 16.7865 8.15104 17.0052 8.85938 17.0156C7.65104 17.9531 6.29167 18.4219 4.78125 18.4219C4.51042 18.4219 4.25 18.4062 4 18.375C5.54167 19.3542 7.21875 19.8438 9.03125 19.8438C10.1979 19.8438 11.2917 19.6589 12.3125 19.2891C13.3333 18.9193 14.2083 18.4245 14.9375 17.8047C15.6667 17.1849 16.2943 16.4714 16.8203 15.6641C17.3464 14.8568 17.737 14.013 17.9922 13.1328C18.2474 12.2526 18.375 11.375 18.375 10.5C18.375 10.3125 18.3698 10.1719 18.3594 10.0781C19.0156 9.60938 19.5625 9.04167 20 8.375ZM24 5.34375V20.3438C24 21.5833 23.5599 22.6432 22.6797 23.5234C21.7995 24.4036 20.7396 24.8438 19.5 24.8438H4.5C3.26042 24.8438 2.20052 24.4036 1.32031 23.5234C0.440104 22.6432 0 21.5833 0 20.3438V5.34375C0 4.10417 0.440104 3.04427 1.32031 2.16406C2.20052 1.28385 3.26042 0.84375 4.5 0.84375H19.5C20.7396 0.84375 21.7995 1.28385 22.6797 2.16406C23.5599 3.04427 24 4.10417 24 5.34375Z" fill="white"/>
</svg>
