<svg width="32" height="32" viewBox="0 0 32 32" fill="none" xmlns="http://www.w3.org/2000/svg">
<g clip-path="url(#clip0_17680_170737)">
<path d="M25.6552 9.16464V12.5718C25.6548 12.7223 25.5948 12.8665 25.4884 12.9729C25.382 13.0793 25.2378 13.1393 25.0873 13.1397H4.07507C3.24847 13.1401 2.44995 12.8399 1.8284 12.295C1.20686 11.7501 0.804728 10.9977 0.697014 10.1781C0.5893 9.35859 0.783352 8.52785 1.24298 7.84083C1.70261 7.15381 2.39644 6.65742 3.19507 6.44424C3.48137 6.36344 3.77757 6.32305 4.07507 6.32424H22.8157C23.5689 6.32439 24.2912 6.62372 24.8237 7.15639C25.3562 7.68907 25.6553 8.41145 25.6552 9.16464Z" fill="#E7EAFF"/>
<path d="M25.655 9.16735V12.5746C25.6546 12.725 25.5946 12.8692 25.4882 12.9756C25.3818 13.082 25.2376 13.142 25.0871 13.1424H4.07486C3.47858 13.1437 2.89261 12.9869 2.37659 12.6882C2.37112 12.5122 2.37112 12.336 2.37112 12.1548C2.36783 10.2227 2.64526 8.30045 3.19472 6.44815C3.48103 6.36735 3.77723 6.32696 4.07472 6.32815H22.8155C23.5685 6.32829 24.2906 6.62746 24.8231 7.15987C25.3555 7.69229 25.6548 8.41437 25.655 9.16735Z" fill="#E7EAFF"/>
<path d="M25.6534 9.16786V12.5751C25.6529 12.7255 25.593 12.8697 25.4866 12.9761C25.3802 13.0825 25.236 13.1425 25.0855 13.1429H13.08C12.2419 10.9754 11.9702 8.62988 12.2908 6.32812H22.8139C23.567 6.32827 24.2892 6.62751 24.8216 7.16004C25.3541 7.69257 25.6533 8.41478 25.6534 9.16786Z" fill="white"/>
<path d="M27.1368 12.0973C27.1377 12.1164 27.1358 12.1355 27.1313 12.1541C27.0729 12.5233 26.9067 12.8671 26.6537 13.1422C26.5899 13.2128 26.5216 13.2792 26.4493 13.341L17.6868 20.6953L13.587 24.1369C13.4861 24.2236 13.3567 24.2701 13.2236 24.2674C13.1415 24.2677 13.0604 24.2501 12.9858 24.2157C12.9113 24.1814 12.8452 24.1312 12.7921 24.0686L3.29636 12.7617C3.20127 12.6454 3.15449 12.497 3.1657 12.3471C3.17138 12.2727 3.1919 12.2001 3.22604 12.1337C3.26018 12.0673 3.30726 12.0084 3.3645 11.9605L6.1985 9.58155L14.467 2.64182L16.227 1.16515C16.5871 0.856486 17.0479 0.690798 17.5221 0.699548C17.7564 0.701244 17.9874 0.753935 18.1993 0.853958C18.4111 0.953981 18.5986 1.09894 18.7488 1.27875L26.7792 10.8422C26.927 11.0149 27.0338 11.2188 27.0916 11.4386C27.1524 11.6526 27.1678 11.877 27.1368 12.0973Z" fill="#5261BC"/>
<path d="M27.1375 12.0973C27.1384 12.1164 27.1365 12.1355 27.132 12.1541C27.0736 12.5233 26.9075 12.8671 26.6544 13.1422C26.5906 13.2128 26.5223 13.2792 26.45 13.341L17.6875 20.6953C15.0762 19.796 12.694 18.3347 10.709 16.4144C8.72399 14.4941 7.18453 12.1616 6.19922 9.58155L14.4678 2.64182L16.2278 1.16515C16.5878 0.856486 17.0487 0.690798 17.5228 0.699548C17.7571 0.701244 17.9882 0.753935 18.2 0.853958C18.4118 0.953981 18.5993 1.09894 18.7495 1.27875L26.7799 10.8422C26.9277 11.0149 27.0345 11.2188 27.0923 11.4386C27.1532 11.6526 27.1686 11.877 27.1375 12.0973Z" fill="#5261BC"/>
<path d="M27.1346 12.0973C27.0608 12.103 26.9871 12.103 26.9134 12.103C24.0881 12.1091 21.3391 11.1863 19.0898 9.47673C16.8404 7.76716 15.2154 5.3656 14.4648 2.64182L16.2248 1.16515C16.5849 0.856486 17.0457 0.690798 17.5199 0.699548C17.7542 0.701244 17.9852 0.753935 18.1971 0.853958C18.4089 0.953981 18.5964 1.09894 18.7466 1.27875L26.777 10.8422C26.9248 11.0149 27.0316 11.2188 27.0894 11.4386C27.1503 11.6526 27.1657 11.877 27.1346 12.0973Z" fill="#5261BC"/>
<path d="M11.3983 22.0936C11.3154 22.0937 11.2335 22.0757 11.1583 22.0406C11.0831 22.0056 11.0166 21.9545 10.9634 21.8909L5.1214 14.9341C5.02444 14.8186 4.97733 14.6692 4.99043 14.519C5.00353 14.3687 5.07577 14.2298 5.19126 14.1328L15.0846 5.8301C15.2 5.73346 15.3491 5.68654 15.499 5.69963C15.649 5.71273 15.7877 5.78478 15.8846 5.89997C16.3235 6.42303 17.6694 6.2021 18.3151 5.65997C18.4306 5.56332 18.5796 5.5164 18.7296 5.5295C18.8795 5.5426 19.0182 5.61464 19.1151 5.72983L22.4534 9.7061C22.5503 9.82137 22.5974 9.97041 22.5845 10.1204C22.5715 10.2705 22.4994 10.4092 22.3842 10.5061C21.7385 11.0478 21.2875 12.3336 21.7271 12.8577C21.7751 12.9148 21.8114 12.9808 21.8338 13.052C21.8563 13.1231 21.8644 13.198 21.8579 13.2723C21.8513 13.3467 21.8302 13.4189 21.7956 13.4851C21.7611 13.5512 21.7139 13.6099 21.6566 13.6577L11.7633 21.9605C11.6612 22.0466 11.5321 22.0938 11.3986 22.0938M6.3566 14.6382L11.4677 20.7261L20.5631 13.0941C20.1758 12.1208 20.6149 10.848 21.2565 10.0478L18.5726 6.84997C17.6731 7.3441 16.3431 7.5553 15.4509 7.00677L6.3566 14.6382Z" fill="white"/>
<path d="M29.0633 14.8468V28.4764C29.0632 29.2296 28.7639 29.9518 28.2313 30.4844C27.6988 31.017 26.9765 31.3162 26.2233 31.3164H3.50826C2.7551 31.3162 2.03284 31.017 1.50028 30.4844C0.967712 29.9518 0.668441 29.2296 0.668265 28.4764V10.3036C0.666109 10.2492 0.675752 10.1949 0.696531 10.1445C0.758831 10.6696 0.943344 11.1727 1.23526 11.6136C1.52718 12.0545 1.91838 12.4207 2.37746 12.6831C2.89193 12.9862 3.47859 13.1451 4.07573 13.1431H26.6549C26.9078 12.8679 27.0738 12.5241 27.1321 12.1549C27.6951 12.3454 28.1841 12.7075 28.5305 13.1904C28.8769 13.6732 29.0633 14.2525 29.0633 14.8468Z" fill="#16216B"/>
<path d="M29.0609 14.8442V28.4738C29.0607 29.227 28.7614 29.9492 28.2289 30.4818C27.6963 31.0144 26.974 31.3136 26.2209 31.3138H16.0163C8.2246 28.5818 2.5966 21.2955 2.375 12.6805C2.88946 12.9836 3.47613 13.1425 4.07327 13.1405H26.6525C26.9054 12.8653 27.0714 12.5215 27.1297 12.1523C27.6926 12.3428 28.1817 12.7049 28.5281 13.1878C28.8745 13.6706 29.0608 14.2499 29.0609 14.8442Z" fill="#16216B"/>
<path d="M29.0628 14.8442V21.7215C28.0928 21.9341 27.1026 22.0408 26.1096 22.0395C23.2934 22.0458 20.5413 21.1989 18.2158 19.6103C15.8903 18.0218 14.1005 15.7662 13.082 13.1405H26.6544C26.9073 12.8653 27.0733 12.5215 27.1316 12.1523C27.6946 12.3428 28.1836 12.7049 28.53 13.1878C28.8764 13.6706 29.0628 14.2499 29.0628 14.8442Z" fill="#7F8CE5"/>
<path d="M31.3317 19.9572V24.5006C31.3304 24.952 31.1504 25.3846 30.8312 25.7038C30.512 26.023 30.0794 26.2029 29.628 26.2042H25.0848C24.0308 26.203 23.0203 25.7838 22.2751 25.0385C21.5298 24.2933 21.1106 23.2828 21.1094 22.2288C21.1082 22.0137 21.1272 21.7988 21.1664 21.5872C21.3185 20.6574 21.796 19.8118 22.5136 19.2012C23.2313 18.5907 24.1425 18.255 25.0848 18.2539H29.628C30.0158 18.2556 30.3918 18.3876 30.6956 18.6287C30.8938 18.7889 31.0538 18.9912 31.1638 19.2211C31.2739 19.4509 31.3312 19.7024 31.3317 19.9572Z" fill="#5261BC"/>
<path d="M30.6956 18.6284C29.9388 21.4391 28.5346 24.0335 26.5954 26.2042H25.0848C24.0308 26.203 23.0203 25.7838 22.2751 25.0385C21.5298 24.2933 21.1106 23.2828 21.1094 22.2288C21.1082 22.0137 21.1272 21.7988 21.1664 21.5872C21.3185 20.6574 21.796 19.8118 22.5136 19.2012C23.2313 18.5907 24.1425 18.255 25.0848 18.2539H29.628C30.0158 18.2555 30.3918 18.3874 30.6956 18.6284Z" fill="#5261BC"/>
<path d="M25.3876 18.2539C24.2313 19.6496 22.7934 20.7855 21.168 21.5872C21.3201 20.6574 21.7976 19.8118 22.5152 19.2012C23.2329 18.5907 24.1441 18.255 25.0864 18.2539H25.3876Z" fill="#5261BC"/>
<path d="M27.3577 22.2295C27.3577 22.4541 27.2911 22.6738 27.1663 22.8606C27.0415 23.0474 26.8641 23.193 26.6565 23.279C26.449 23.365 26.2206 23.3875 26.0002 23.3437C25.7799 23.2998 25.5775 23.1917 25.4186 23.0328C25.2598 22.8739 25.1516 22.6715 25.1078 22.4512C25.0639 22.2308 25.0864 22.0024 25.1724 21.7949C25.2584 21.5873 25.404 21.4099 25.5908 21.2851C25.7776 21.1603 25.9973 21.0937 26.2219 21.0938C26.5231 21.0939 26.8119 21.2135 27.0249 21.4265C27.2379 21.6395 27.3576 21.9283 27.3577 22.2295Z" fill="white"/>
<path d="M5.20849 25.6351C5.13391 25.6351 5.06006 25.6205 4.99116 25.5919C4.92225 25.5634 4.85965 25.5216 4.80691 25.4688C4.75418 25.4161 4.71235 25.3535 4.68382 25.2846C4.65528 25.2157 4.64061 25.1418 4.64063 25.0672V19.3882C4.64063 19.2376 4.70045 19.0931 4.80695 18.9866C4.91345 18.8801 5.05788 18.8203 5.20849 18.8203C5.3591 18.8203 5.50354 18.8801 5.61003 18.9866C5.71653 19.0931 5.77636 19.2376 5.77636 19.3882V25.0672C5.77638 25.1418 5.7617 25.2157 5.73317 25.2846C5.70464 25.3535 5.66281 25.4161 5.61007 25.4688C5.55734 25.5216 5.49473 25.5634 5.42583 25.5919C5.35692 25.6205 5.28307 25.6351 5.20849 25.6351Z" fill="white"/>
</g>
<defs>
<clipPath id="clip0_17680_170737">
<rect width="32" height="32" fill="white"/>
</clipPath>
</defs>
</svg>
